<?xml version="1.0" standalone="no"?><!DOCTYPE svg PUBLIC "-//W3C//DTD SVG 1.1//EN" "http://www.w3.org/Graphics/SVG/1.1/DTD/svg11.dtd"><svg class="icon" width="48px" height="31.39px" viewBox="0 0 1566 1024" version="1.1" xmlns="http://www.w3.org/2000/svg"><path d="M1558.0326 915.297604c-24.297216 7.105505-109.292308 28.301589-272.718932 32.095207-0.602161-56.332206-0.903242-169.869752-0.752702-191.216376 0.451621-37.394228-15.927171-68.285111-47.239567-89.481196l-0.301081-0.15054-0.331189-0.15054a255.948735 255.948735 0 0 0-42.482492-22.099326 642.71705 642.71705 0 0 1-62.383929-29.505913c0.481729-14.84328 0.78281-29.23494 0.93335-43.626599a13.90993 13.90993 0 0 0-3.372104-9.664691c-20.774571-21.828353-30.559695-48.624539-37.454444-77.227209-0.903242-3.643077-4.877508-7.707667-8.400152-9.84534-22.942352-13.157228-32.125315-56.904259-16.529333-78.250884a22.97246 22.97246 0 0 0 3.372105-15.595982c-5.509777-25.742403-10.387285-51.334266-11.922798-77.829371a224.696554 224.696554 0 0 1-0.30108-22.550947c3.221564-88.547845 52.267616-133.378767 136.660546-139.73157 22.641271-1.686052 46.185785 0.752702 68.796949 4.99794 11.471176 1.957025 21.557381 12.404526 32.245747 18.90787 3.673185 1.987133 7.19583 5.299021 11.019555 6.202263 42.964221 10.146421 68.796949 39.38136 74.306726 82.37569 0.301081 2.107565 0.602161 4.245238 0.752702 6.352804 3.221564 40.585683-2.137673 79.786395-13.75939 118.535486-2.137673 7.135613-2.137673 12.585175 3.221564 19.239059 16.198144 20.292842 5.660318 64.039873-17.131494 76.74548a19.359491 19.359491 0 0 0-8.400153 11.200203c-6.864641 27.548887-16.047603 53.893452-36.220012 75.270185a18.185277 18.185277 0 0 0-3.974266 10.748582c0.15054 21.497165-0.78281 43.114762 2.438754 64.160305 1.535512 10.296961 8.851774 22.581055 17.402467 28.482238 0.93335 0.752702 2.017241 1.354863 2.920483 1.957025 19.269167 12.856147 39.291036 24.236999 60.246255 33.901691 27.03705 12.886256 55.790261 22.279975 82.706879 35.286662 38.809307 18.937978 71.386243 44.680381 85.296173 87.494063 3.793617 11.983013 6.111939 24.53808 8.851773 37.243687v53.441831c-0.602161 0.15054-3.040915 0.93335-7.49691 2.288213zM962.133605 374.375951c-2.107565 6.202263-7.948531 13.307769-13.75939 15.595983-21.707921 8.761449-28.422022 26.314456-28.271481 46.757838v0.150541c0.15054 12.886256-1.535512 24.839161-6.111939 35.888823a70.994838 70.994838 0 0 1-15.897063 23.634838 27.488671 27.488671 0 0 0-5.208697 9.213071c-5.810858 13.940038-4.124806 17.703547 10.688366 19.389599 10.718474 1.053783 16.228252 5.901182 19.570248 15.445442 1.987133 5.600102 6.593668 10.296961 7.97864 16.047604 2.739835 12.555067 18.034736 44.650273 24.447756 46.908378 37.906065 13.337877 75.209968 28.933859 112.814952 43.626599 33.781259 13.307769 67.863598 26.344565 101.674965 39.501793 10.086205 3.793617 19.871329 8.038856 29.505912 13.006688 23.996135 13.187336 37.906065 31.342505 36.972715 61.179606-0.602161 24.357432 0 192.57124 0.93335 216.958779-36.220013 10.748582-174.11499 45.854596-452.49424 45.854596-277.626548 0-418.442009-34.804933-456.197534-46.035244 0.78281-25.862835 1.384971-195.582047 1.234431-221.625531-0.301081-21.948786 8.851774-37.544768 25.832728-49.046052a190.37335 190.37335 0 0 1 33.931799-17.733656c64.672142-26.314456 97.36951-52.2074 162.372841-77.799262a273.140445 273.140445 0 0 1 42.181412-13.006688c12.223878-2.890375 21.226192-8.942098 27.368239-19.3896 8.099072-13.789498 15.897063-27.548887 22.912244-41.790006 3.522645-7.105505 7.49691-12.103446 15.445442-12.856147 10.718474-0.78281 11.019555-6.834533 6.894749-13.940039-3.522645-6.503344-9.333503-11.952905-12.705608-18.456249-0.903242-1.686052-1.836592-3.341996-2.589294-4.99794-3.823725-7.436694-7.647451-14.84328-8.881882-22.701488a293.674151 293.674151 0 0 1-2.890375-25.441322c-0.93335-10.748582-1.535512-21.677813-3.071023-32.396287-0.451621-3.643077-5.509777-9.243179-9.002314-9.6948-16.228252-2.589294-26.013376-12.434634-28.753211-26.796186-5.509777-28.331697-8.550693-57.084908-12.374418-85.537037a8.219504 8.219504 0 0 1 0.903242-5.750642c15.445442-20.744463 8.27972-42.693249 4.907616-65.093656-5.509777-36.340445-7.19583-72.68089 3.823726-108.419173 11.170095-36.340445 34.985582-61.450579 71.085162-75.089536 35.16623-13.458309 70.302352-26.946726 108.389065-29.204832 5.028048-0.301081 10.086205-0.451621 15.114253-0.451621 36.09958 0 69.850731 8.610909 99.085671 33.600611 6.7141 5.750642 16.800305 9.243179 25.682187 10.598041 12.97658 1.957025 22.009002 7.557127 28.572562 18.787438 18.365925 32.065099 20.353058 66.90014 17.583115 102.638424-2.137673 27.097266-2.890375 54.495613-3.823726 81.59288a24.477864 24.477864 0 0 0 3.823726 12.253986c22.490731 38.146929 13.90993 76.625048 0.301081 114.621436z m-466.855792 6.202264a23.123001 23.123001 0 0 0 3.341996 15.595982c15.595982 21.346624 6.41302 65.093655-16.499224 78.250884-3.522645 2.137673-7.49691 6.202263-8.400153 9.84534-6.894749 28.60267-16.679873 55.398856-37.454443 77.227209a13.789498 13.789498 0 0 0-3.372105 9.664691c0.15054 14.391659 0.451621 28.783318 0.903243 43.626599-19.088519 10.116313-38.357686 19.811113-62.353821 29.505913a257.424031 257.424031 0 0 0-42.5126 22.099326l-0.301081 0.15054-0.301081 0.15054c-31.342505 21.196084-47.691189 52.086968-47.239568 89.481196 0.15054 21.346624-0.15054 134.88417-0.782809 191.216376-163.426624-3.643077-248.421716-24.839161-272.718932-31.944666l-7.496911-2.288214v-53.441831c2.769943-12.705607 5.058156-25.260674 8.881882-37.243687 13.90993-42.843789 46.456758-68.586192 85.296173-87.494062 26.916618-13.006688 55.63972-22.400407 82.706878-35.256555a440.240254 440.240254 0 0 0 60.216148-33.931799c0.93335-0.602161 2.017241-1.204323 2.920483-1.957025 8.580801-5.901182 15.897063-18.185277 17.432575-28.452129 3.191456-21.045544 2.288214-42.723357 2.438754-64.220522a18.335817 18.335817 0 0 0-3.974266-10.748582c-20.172409-21.346624-29.355372-47.661081-36.220013-75.240076a19.510032 19.510032 0 0 0-8.400152-11.200204c-22.791812-12.705607-33.329638-56.452638-17.131494-76.74548 5.359237-6.653884 5.359237-12.103446 3.221564-19.239059-11.621716-38.749091-16.980954-77.949803-13.789498-118.535486 0.15054-2.107565 0.481729-4.245238 0.78281-6.352804 5.479669-42.994329 31.342505-72.229269 74.306726-82.375689 3.823725-0.903242 7.316262-4.21513 10.989447-6.202264 10.718474-6.503344 20.804679-16.950846 32.245747-18.90787 22.641271-4.245238 46.185785-6.653884 68.827056-4.99794 84.362823 6.352804 133.438983 51.153617 136.630439 139.73157 0.331189 7.587235 0.180648 15.144361-0.270973 22.550947-1.535512 26.344565-6.41302 51.936427-11.922797 77.678831z" fill="#4FC297" /></svg>