<?xml version="1.0" standalone="no"?><!DOCTYPE svg PUBLIC "-//W3C//DTD SVG 1.1//EN" "http://www.w3.org/Graphics/SVG/1.1/DTD/svg11.dtd"><svg class="icon" width="48px" height="48.00px" viewBox="0 0 1024 1024" version="1.1" xmlns="http://www.w3.org/2000/svg"><path d="M685.695994 63.956637C643.320884 22.707165 587.008344 0 527.134699 0s-116.186186 22.707165-158.561295 63.956637c-42.528606 41.392736-65.952084 96.477308-65.952084 155.092287l0 255.785617c0 58.614979 23.423479 113.699552 65.952084 155.092287 42.37511 41.249473 98.68765 63.956637 158.561295 63.956637s116.186186-22.707165 158.561295-63.956637c42.528606-41.392736 65.952084-96.477308 65.952084-155.092287L751.648079 219.048925C751.648079 160.433946 728.2246 105.349373 685.695994 63.956637zM710.715831 474.834542c0 98.216929-82.355683 178.116677-183.581132 178.116677s-183.581132-79.899748-183.581132-178.116677L343.553567 219.048925c0-98.216929 82.355683-178.116677 183.581132-178.116677s183.581132 79.899748 183.581132 178.116677L710.715831 474.834542 710.715831 474.834542z" fill="#ffffff" /><path d="M853.671707 367.346459l0 102.023628c0 173.184341-135.51644 315.301106-306.070884 325.902558l0 143.416364c0 11.2973-9.15859 20.466124-20.466124 20.466124s-20.466124-9.168824-20.466124-20.466124L506.668575 795.272645c-170.554444-10.601452-306.070884-152.718217-306.070884-325.902558l0-102.023628c0-11.2973 9.15859-20.466124 20.466124-20.466124 11.2973 0 20.466124 9.168824 20.466124 20.466124l0 102.023628c0 157.486824 128.117936 285.60476 285.60476 285.60476s285.60476-128.117936 285.60476-285.60476l0-102.023628c0-11.2973 9.168824-20.466124 20.466124-20.466124C844.513116 346.880335 853.671707 356.049159 853.671707 367.346459z" fill="#ffffff" /><path d="M791.413757 999.903186c0 11.2973-9.168824 20.466124-20.466124 20.466124l-487.62587 0c-11.2973 0-20.466124-9.168824-20.466124-20.466124 0-11.307533 9.168824-20.466124 20.466124-20.466124l487.62587 0C782.244934 979.437062 791.413757 988.595652 791.413757 999.903186z" fill="#ffffff" /></svg>