<?xml version="1.0" standalone="no"?><!DOCTYPE svg PUBLIC "-//W3C//DTD SVG 1.1//EN" "http://www.w3.org/Graphics/SVG/1.1/DTD/svg11.dtd"><svg class="icon" width="48px" height="48.00px" viewBox="0 0 1024 1024" version="1.1" xmlns="http://www.w3.org/2000/svg"><path d="M340.904737 289.613913h398.469566l-135.969392 136.102957a40.96 40.96 0 0 0 29.117218 70.121739c10.640696 0 21.014261-4.006957 29.117217-12.02087l203.820522-203.776a41.405217 41.405217 0 0 0 0-58.234435L655.58439 12.109913a40.96 40.96 0 0 0-58.10087 0 40.96 40.96 0 0 0 0 58.056348l137.216 137.260522H340.904737a338.810435 338.810435 0 0 0-241.129739 99.906782A339.166609 339.166609 0 0 0 0.001781 548.463304a41.093565 41.093565 0 1 0 82.18713 0c0-69.097739 26.980174-134.144 75.820522-182.984347a257.024 257.024 0 0 1 182.895304-75.865044z m636.527305 141.267478a41.093565 41.093565 0 0 0-41.093565 41.093566 257.29113 257.29113 0 0 1-75.820522 182.984347 257.113043 257.113043 0 0 1-182.984348 75.820522h-398.469565l136.058435-136.058435a40.96 40.96 0 0 0 0-58.145391 40.96 40.96 0 0 0-58.10087 0L153.201085 740.396522a41.405217 41.405217 0 0 0 0 58.234435l209.741913 209.697391a41.138087 41.138087 0 0 0 58.234435 0 40.96 40.96 0 0 0 0-58.10087l-137.349565-137.349565h393.794782a338.810435 338.810435 0 0 0 241.12974-99.906783 338.810435 338.810435 0 0 0 99.906782-241.129739 41.22713 41.22713 0 0 0-41.22713-40.96z" fill="#ffffff" /></svg>